<svg version="1.1" xmlns="http://www.w3.org/2000/svg" xmlns:xlink="http://www.w3.org/1999/xlink" width="749" height="371"><defs/><g><g transform="translate(-197,-102) scale(1,1)"><rect fill="#C0C0C0" stroke="none" x="351" y="119" width="592" height="344" opacity="0.2"/></g><g transform="translate(-197,-102) scale(1,1)"><rect fill="#ffffff" stroke="none" x="344" y="112" width="592" height="344"/></g><g transform="translate(-197,-102) scale(1,1)"><path fill="none" stroke="#000000" d="M 344 112 L 936 112 L 936 456 L 344 456 L 344 112 Z Z" stroke-miterlimit="10"/></g><g transform="translate(-197,-102) scale(1,1)"><g><path fill="none" stroke="none"/><text fill="#000000" stroke="none" font-family="Arial" font-size="13px" font-style="normal" font-weight="bold" text-decoration="none" x="616.87548828125" y="130">System</text></g></g><g transform="translate(-197,-102) scale(1,1)"><path fill="#ffffff" stroke="none" d="M 223.89163636363634 208.48000000000002 C 223.89163636363634 199.930631296 230.65588041076361 193 239 193 C 247.34411958923639 193 254.10836363636366 199.930631296 254.10836363636366 208.48000000000002 C 254.10836363636366 217.02936870400003 247.34411958923639 223.96 239 223.96 C 230.65588041076361 223.96 223.89163636363634 217.02936870400003 223.89163636363634 208.48000000000002 Z"/></g><g transform="translate(-197,-102) scale(1,1)"><path fill="none" stroke="#000000" d="M 223.89163636363634 208.48000000000002 C 223.89163636363634 199.930631296 230.65588041076361 193 239 193 C 247.34411958923639 193 254.10836363636366 199.930631296 254.10836363636366 208.48000000000002 C 254.10836363636366 217.02936870400003 247.34411958923639 223.96 239 223.96 C 230.65588041076361 223.96 223.89163636363634 217.02936870400003 223.89163636363634 208.48000000000002 Z" stroke-miterlimit="10"/></g><g transform="translate(-197,-102) scale(1,1)"><path fill="none" stroke="#000000" d="M 239 223.96 L 239 254.04" stroke-miterlimit="10"/></g><g transform="translate(-197,-102) scale(1,1)"><path fill="none" stroke="#000000" d="M 223.00290909090907 235.24 L 254.99709090909093 235.24" stroke-miterlimit="10"/></g><g transform="translate(-197,-102) scale(1,1)"><path fill="none" stroke="#000000" d="M 239 254.04 L 216.78181818181815 285" stroke-miterlimit="10"/></g><g transform="translate(-197,-102) scale(1,1)"><path fill="none" stroke="#000000" d="M 239 254.04 L 261.21818181818185 285" stroke-miterlimit="10"/></g><g transform="translate(-197,-102) scale(1,1)"><g><path fill="none" stroke="none"/><text fill="#000000" stroke="none" font-family="Arial" font-size="13px" font-style="normal" font-weight="bold" text-decoration="none" x="224.54638671875" y="304">User</text></g></g><g transform="translate(-197,-102) scale(1,1)"><path fill="#C0C0C0" stroke="none" d="M 454 258.5 C 454 243.31216799999999 496.9806592 231 550 231 C 603.0193408 231 646 243.31216799999999 646 258.5 C 646 273.687832 603.0193408 286 550 286 C 496.9806592 286 454 273.687832 454 258.5 Z" opacity="0.2"/></g><g transform="translate(-197,-102) scale(1,1)"><path fill="#ebffd8" stroke="none" d="M 447 251.5 C 447 236.31216799999999 489.9806592 224 543 224 C 596.0193408 224 639 236.31216799999999 639 251.5 C 639 266.687832 596.0193408 279 543 279 C 489.9806592 279 447 266.687832 447 251.5 Z"/></g><g transform="translate(-197,-102) scale(1,1)"><path fill="none" stroke="#000000" d="M 447 251.5 C 447 236.31216799999999 489.9806592 224 543 224 C 596.0193408 224 639 236.31216799999999 639 251.5 C 639 266.687832 596.0193408 279 543 279 C 489.9806592 279 447 266.687832 447 251.5 Z" stroke-miterlimit="10"/></g><g transform="translate(-197,-102) scale(1,1)"><g><path fill="none" stroke="none"/><text fill="#000000" stroke="none" font-family="Arial" font-size="13px" font-style="normal" font-weight="bold" text-decoration="none" x="489.536865234375" y="250.5">Accept challenge</text><text fill="#000000" stroke="none" font-family="Arial" font-size="13px" font-style="normal" font-weight="bold" text-decoration="none" x="520.61181640625" y="263.5">(RF-18)</text></g></g><g transform="translate(-197,-102) scale(1,1)"><path fill="#C0C0C0" stroke="none" d="M 454 186.5 C 454 171.31216799999999 496.9806592 159 550 159 C 603.0193408 159 646 171.31216799999999 646 186.5 C 646 201.68783200000001 603.0193408 214 550 214 C 496.9806592 214 454 201.68783200000001 454 186.5 Z" opacity="0.2"/></g><g transform="translate(-197,-102) scale(1,1)"><path fill="#ebffd8" stroke="none" d="M 447 179.5 C 447 164.31216799999999 489.9806592 152 543 152 C 596.0193408 152 639 164.31216799999999 639 179.5 C 639 194.68783200000001 596.0193408 207 543 207 C 489.9806592 207 447 194.68783200000001 447 179.5 Z"/></g><g transform="translate(-197,-102) scale(1,1)"><path fill="none" stroke="#000000" d="M 447 179.5 C 447 164.31216799999999 489.9806592 152 543 152 C 596.0193408 152 639 164.31216799999999 639 179.5 C 639 194.68783200000001 596.0193408 207 543 207 C 489.9806592 207 447 194.68783200000001 447 179.5 Z" stroke-miterlimit="10"/></g><g transform="translate(-197,-102) scale(1,1)"><g><path fill="none" stroke="none"/><text fill="#000000" stroke="none" font-family="Arial" font-size="13px" font-style="normal" font-weight="bold" text-decoration="none" x="495.319580078125" y="178.5">Send challenge</text><text fill="#000000" stroke="none" font-family="Arial" font-size="13px" font-style="normal" font-weight="bold" text-decoration="none" x="520.61181640625" y="191.5">(RF-17)</text></g></g><g transform="translate(-197,-102) scale(1,1)"><path fill="#C0C0C0" stroke="none" d="M 454 332.5 C 454 317.312168 496.9806592 305 550 305 C 603.0193408 305 646 317.312168 646 332.5 C 646 347.687832 603.0193408 360 550 360 C 496.9806592 360 454 347.687832 454 332.5 Z" opacity="0.2"/></g><g transform="translate(-197,-102) scale(1,1)"><path fill="#ffd8d8" stroke="none" d="M 447 325.5 C 447 310.312168 489.9806592 298 543 298 C 596.0193408 298 639 310.312168 639 325.5 C 639 340.687832 596.0193408 353 543 353 C 489.9806592 353 447 340.687832 447 325.5 Z"/></g><g transform="translate(-197,-102) scale(1,1)"><path fill="none" stroke="#000000" d="M 447 325.5 C 447 310.312168 489.9806592 298 543 298 C 596.0193408 298 639 310.312168 639 325.5 C 639 340.687832 596.0193408 353 543 353 C 489.9806592 353 447 340.687832 447 325.5 Z" stroke-miterlimit="10"/></g><g transform="translate(-197,-102) scale(1,1)"><g><path fill="none" stroke="none"/><text fill="#000000" stroke="none" font-family="Arial" font-size="13px" font-style="normal" font-weight="bold" text-decoration="none" x="488.089599609375" y="324.5">Decline challenge</text><text fill="#000000" stroke="none" font-family="Arial" font-size="13px" font-style="normal" font-weight="bold" text-decoration="none" x="520.61181640625" y="337.5">(RF-19)</text></g></g><g transform="translate(-197,-102) scale(1,1)"><path fill="none" stroke="#000000" d="M 272 235 Q 344 200 446 189" stroke-miterlimit="10"/></g><g transform="translate(-197,-102) scale(1,1)"><path fill="none" stroke="#000000" d="M 272 251 L 446 251" stroke-miterlimit="10"/></g><g transform="translate(-197,-102) scale(1,1)"><path fill="none" stroke="#000000" d="M 272 274 Q 328 312 446 319" stroke-miterlimit="10"/></g><g transform="translate(-197,-102) scale(1,1)"><path fill="#C0C0C0" stroke="none" d="M 454 405.5 C 454 390.312168 496.9806592 378 550 378 C 603.0193408 378 646 390.312168 646 405.5 C 646 420.687832 603.0193408 433 550 433 C 496.9806592 433 454 420.687832 454 405.5 Z" opacity="0.2"/></g><g transform="translate(-197,-102) scale(1,1)"><path fill="#ebffd8" stroke="none" d="M 447 398.5 C 447 383.312168 489.9806592 371 543 371 C 596.0193408 371 639 383.312168 639 398.5 C 639 413.687832 596.0193408 426 543 426 C 489.9806592 426 447 413.687832 447 398.5 Z"/></g><g transform="translate(-197,-102) scale(1,1)"><path fill="none" stroke="#000000" d="M 447 398.5 C 447 383.312168 489.9806592 371 543 371 C 596.0193408 371 639 383.312168 639 398.5 C 639 413.687832 596.0193408 426 543 426 C 489.9806592 426 447 413.687832 447 398.5 Z" stroke-miterlimit="10"/></g><g transform="translate(-197,-102) scale(1,1)"><g><path fill="none" stroke="none"/><text fill="#000000" stroke="none" font-family="Arial" font-size="13px" font-style="normal" font-weight="bold" text-decoration="none" x="485.563232421875" y="397.5">Validate Challenge</text><text fill="#000000" stroke="none" font-family="Arial" font-size="13px" font-style="normal" font-weight="bold" text-decoration="none" x="520.61181640625" y="410.5">(RF-22)</text></g></g><g transform="translate(-197,-102) scale(1,1)"><path fill="#ffffff" stroke="none" d="M 223.89163636363634 360.48 C 223.89163636363634 351.930631296 230.65588041076361 345 239 345 C 247.34411958923639 345 254.10836363636366 351.930631296 254.10836363636366 360.48 C 254.10836363636366 369.02936870400003 247.34411958923639 375.96 239 375.96 C 230.65588041076361 375.96 223.89163636363634 369.02936870400003 223.89163636363634 360.48 Z"/></g><g transform="translate(-197,-102) scale(1,1)"><path fill="none" stroke="#000000" d="M 223.89163636363634 360.48 C 223.89163636363634 351.930631296 230.65588041076361 345 239 345 C 247.34411958923639 345 254.10836363636366 351.930631296 254.10836363636366 360.48 C 254.10836363636366 369.02936870400003 247.34411958923639 375.96 239 375.96 C 230.65588041076361 375.96 223.89163636363634 369.02936870400003 223.89163636363634 360.48 Z" stroke-miterlimit="10"/></g><g transform="translate(-197,-102) scale(1,1)"><path fill="none" stroke="#000000" d="M 239 375.96 L 239 406.04" stroke-miterlimit="10"/></g><g transform="translate(-197,-102) scale(1,1)"><path fill="none" stroke="#000000" d="M 223.00290909090907 387.24 L 254.99709090909093 387.24" stroke-miterlimit="10"/></g><g transform="translate(-197,-102) scale(1,1)"><path fill="none" stroke="#000000" d="M 239 406.04 L 216.78181818181815 437" stroke-miterlimit="10"/></g><g transform="translate(-197,-102) scale(1,1)"><path fill="none" stroke="#000000" d="M 239 406.04 L 261.21818181818185 437" stroke-miterlimit="10"/></g><g transform="translate(-197,-102) scale(1,1)"><g><path fill="none" stroke="none"/><text fill="#000000" stroke="none" font-family="Arial" font-size="13px" font-style="normal" font-weight="bold" text-decoration="none" x="211.549560546875" y="456">Operator</text></g></g><g transform="translate(-197,-102) scale(1,1)"><path fill="none" stroke="#000000" d="M 446 400 L 272 402" stroke-miterlimit="10"/></g><g transform="translate(-197,-102) scale(1,1)"><path fill="#C0C0C0" stroke="none" d="M 719 258 C 719 243.6405952 761.9806592 232 815 232 C 868.0193408 232 911 243.6405952 911 258 C 911 272.3594048 868.0193408 284 815 284 C 761.9806592 284 719 272.3594048 719 258 Z" opacity="0.2"/></g><g transform="translate(-197,-102) scale(1,1)"><path fill="#d8fff8" stroke="none" d="M 712 251 C 712 236.6405952 754.9806592 225 808 225 C 861.0193408 225 904 236.6405952 904 251 C 904 265.3594048 861.0193408 277 808 277 C 754.9806592 277 712 265.3594048 712 251 Z"/></g><g transform="translate(-197,-102) scale(1,1)"><path fill="none" stroke="#000000" d="M 712 251 C 712 236.6405952 754.9806592 225 808 225 C 861.0193408 225 904 236.6405952 904 251 C 904 265.3594048 861.0193408 277 808 277 C 754.9806592 277 712 265.3594048 712 251 Z" stroke-miterlimit="10"/></g><g transform="translate(-197,-102) scale(1,1)"><g><path fill="none" stroke="none"/><text fill="#000000" stroke="none" font-family="Arial" font-size="13px" font-style="normal" font-weight="bold" text-decoration="none" x="750.220458984375" y="256.5">Do combat (RF-26)</text></g></g><g transform="translate(-197,-102) scale(1,1)"><path fill="none" stroke="#000000" d="M 640 251 L 711 251" stroke-miterlimit="10" stroke-dasharray="3"/></g><g transform="translate(-197,-102) scale(1,1)"><path fill="none" stroke="#000000" d="M 700.8373251423759 255.209517756016 L 711 251 L 700.8373251423758 246.790482243984" stroke-miterlimit="10"/></g><g transform="translate(-197,-102) scale(1,1)"><g><path fill="none" stroke="none"/><text fill="#000000" stroke="none" font-family="Arial" font-size="13px" font-style="normal" font-weight="normal" text-decoration="none" x="647.5" y="244">«include»</text></g></g><g transform="translate(-197,-102) scale(1,1)"><path fill="#C0C0C0" stroke="none" d="M 719 185 C 719 170.6405952 761.9806592 159 815 159 C 868.0193408 159 911 170.6405952 911 185 C 911 199.3594048 868.0193408 211 815 211 C 761.9806592 211 719 199.3594048 719 185 Z" opacity="0.2"/></g><g transform="translate(-197,-102) scale(1,1)"><path fill="#d8fff8" stroke="none" d="M 712 178 C 712 163.6405952 754.9806592 152 808 152 C 861.0193408 152 904 163.6405952 904 178 C 904 192.3594048 861.0193408 204 808 204 C 754.9806592 204 712 192.3594048 712 178 Z"/></g><g transform="translate(-197,-102) scale(1,1)"><path fill="none" stroke="#000000" d="M 712 178 C 712 163.6405952 754.9806592 152 808 152 C 861.0193408 152 904 163.6405952 904 178 C 904 192.3594048 861.0193408 204 808 204 C 754.9806592 204 712 192.3594048 712 178 Z" stroke-miterlimit="10"/></g><g transform="translate(-197,-102) scale(1,1)"><g><path fill="none" stroke="none"/><text fill="#000000" stroke="none" font-family="Arial" font-size="13px" font-style="normal" font-weight="bold" text-decoration="none" x="747.941650390625" y="177">Watch gold amount</text><text fill="#000000" stroke="none" font-family="Arial" font-size="13px" font-style="normal" font-weight="bold" text-decoration="none" x="785.61181640625" y="190">(RF-25)</text></g></g><g transform="translate(-197,-102) scale(1,1)"><path fill="none" stroke="#000000" d="M 640 179 L 711 178" stroke-miterlimit="10" stroke-dasharray="3"/></g><g transform="translate(-197,-102) scale(1,1)"><path fill="none" stroke="#000000" d="M 700.8976160969777 182.35222236058274 L 711 178 L 700.7790498916233 173.93402178042288" stroke-miterlimit="10"/></g><g transform="translate(-197,-102) scale(1,1)"><g><path fill="none" stroke="none"/><text fill="#000000" stroke="none" font-family="Arial" font-size="13px" font-style="normal" font-weight="normal" text-decoration="none" x="639.5" y="170">«include»</text></g></g></g></svg>