<svg version="1.1" xmlns="http://www.w3.org/2000/svg" xmlns:xlink="http://www.w3.org/1999/xlink" width="628" height="332"><defs/><g><g transform="translate(-182,-150) scale(1,1)"><rect fill="#C0C0C0" stroke="none" x="335" y="167" width="472" height="312" opacity="0.2"/></g><g transform="translate(-182,-150) scale(1,1)"><rect fill="#ffffff" stroke="none" x="328" y="160" width="472" height="312"/></g><g transform="translate(-182,-150) scale(1,1)"><path fill="none" stroke="#000000" d="M 328 160 L 800 160 L 800 472 L 328 472 L 328 160 Z Z" stroke-miterlimit="10"/></g><g transform="translate(-182,-150) scale(1,1)"><g><path fill="none" stroke="none"/><text fill="#000000" stroke="none" font-family="Arial" font-size="13px" font-style="normal" font-weight="bold" text-decoration="none" x="540.87548828125" y="178">System</text></g></g><g transform="translate(-182,-150) scale(1,1)"><path fill="#ffffff" stroke="none" d="M 212.39163636363637 280.48 C 212.39163636363637 271.930631296 219.15588041076364 265 227.5 265 C 235.84411958923636 265 242.60836363636363 271.930631296 242.60836363636363 280.48 C 242.60836363636363 289.02936870400003 235.84411958923636 295.96 227.5 295.96 C 219.15588041076364 295.96 212.39163636363637 289.02936870400003 212.39163636363637 280.48 Z"/></g><g transform="translate(-182,-150) scale(1,1)"><path fill="none" stroke="#000000" d="M 212.39163636363637 280.48 C 212.39163636363637 271.930631296 219.15588041076364 265 227.5 265 C 235.84411958923636 265 242.60836363636363 271.930631296 242.60836363636363 280.48 C 242.60836363636363 289.02936870400003 235.84411958923636 295.96 227.5 295.96 C 219.15588041076364 295.96 212.39163636363637 289.02936870400003 212.39163636363637 280.48 Z" stroke-miterlimit="10"/></g><g transform="translate(-182,-150) scale(1,1)"><path fill="none" stroke="#000000" d="M 227.5 295.96 L 227.5 326.04" stroke-miterlimit="10"/></g><g transform="translate(-182,-150) scale(1,1)"><path fill="none" stroke="#000000" d="M 211.5029090909091 307.24 L 243.4970909090909 307.24" stroke-miterlimit="10"/></g><g transform="translate(-182,-150) scale(1,1)"><path fill="none" stroke="#000000" d="M 227.5 326.04 L 205.28181818181818 357" stroke-miterlimit="10"/></g><g transform="translate(-182,-150) scale(1,1)"><path fill="none" stroke="#000000" d="M 227.5 326.04 L 249.71818181818182 357" stroke-miterlimit="10"/></g><g transform="translate(-182,-150) scale(1,1)"><g><path fill="none" stroke="none"/><text fill="#000000" stroke="none" font-family="Arial" font-size="13px" font-style="normal" font-weight="bold" text-decoration="none" x="213.04638671875" y="376">User</text></g></g><g transform="translate(-182,-150) scale(1,1)"><path fill="#C0C0C0" stroke="none" d="M 372 377 C 372 362.6405952 431.76997919999997 351 505.5 351 C 579.2300208 351 639 362.6405952 639 377 C 639 391.3594048 579.2300208 403 505.5 403 C 431.76997919999997 403 372 391.3594048 372 377 Z" opacity="0.2"/></g><g transform="translate(-182,-150) scale(1,1)"><path fill="#ebffd8" stroke="none" d="M 365 370 C 365 355.6405952 424.76997919999997 344 498.5 344 C 572.2300208 344 632 355.6405952 632 370 C 632 384.3594048 572.2300208 396 498.5 396 C 424.76997919999997 396 365 384.3594048 365 370 Z"/></g><g transform="translate(-182,-150) scale(1,1)"><path fill="none" stroke="#000000" d="M 365 370 C 365 355.6405952 424.76997919999997 344 498.5 344 C 572.2300208 344 632 355.6405952 632 370 C 632 384.3594048 572.2300208 396 498.5 396 C 424.76997919999997 396 365 384.3594048 365 370 Z" stroke-miterlimit="10"/></g><g transform="translate(-182,-150) scale(1,1)"><g><path fill="none" stroke="none"/><text fill="#000000" stroke="none" font-family="Arial" font-size="13px" font-style="normal" font-weight="bold" text-decoration="none" x="419.75732421875" y="375.5">Register Character (RF-6)</text></g></g><g transform="translate(-182,-150) scale(1,1)"><path fill="#C0C0C0" stroke="none" d="M 375 441 C 375 426.6405952 434.76997919999997 415 508.5 415 C 582.2300208 415 642 426.6405952 642 441 C 642 455.3594048 582.2300208 467 508.5 467 C 434.76997919999997 467 375 455.3594048 375 441 Z" opacity="0.2"/></g><g transform="translate(-182,-150) scale(1,1)"><path fill="#ffd8d8" stroke="none" d="M 368 434 C 368 419.6405952 427.76997919999997 408 501.5 408 C 575.2300208 408 635 419.6405952 635 434 C 635 448.3594048 575.2300208 460 501.5 460 C 427.76997919999997 460 368 448.3594048 368 434 Z"/></g><g transform="translate(-182,-150) scale(1,1)"><path fill="none" stroke="#000000" d="M 368 434 C 368 419.6405952 427.76997919999997 408 501.5 408 C 575.2300208 408 635 419.6405952 635 434 C 635 448.3594048 575.2300208 460 501.5 460 C 427.76997919999997 460 368 448.3594048 368 434 Z" stroke-miterlimit="10"/></g><g transform="translate(-182,-150) scale(1,1)"><g><path fill="none" stroke="none"/><text fill="#000000" stroke="none" font-family="Arial" font-size="13px" font-style="normal" font-weight="bold" text-decoration="none" x="416.25732421875" y="439.5">Unregister Character (RF-8)</text></g></g><g transform="translate(-182,-150) scale(1,1)"><path fill="#C0C0C0" stroke="none" d="M 372 219 C 372 203.5360256 431.76997919999997 191 505.5 191 C 579.2300208 191 639 203.5360256 639 219 C 639 234.4639744 579.2300208 247 505.5 247 C 431.76997919999997 247 372 234.4639744 372 219 Z" opacity="0.2"/></g><g transform="translate(-182,-150) scale(1,1)"><path fill="#ebffd8" stroke="none" d="M 365 212 C 365 196.5360256 424.76997919999997 184 498.5 184 C 572.2300208 184 632 196.5360256 632 212 C 632 227.4639744 572.2300208 240 498.5 240 C 424.76997919999997 240 365 227.4639744 365 212 Z"/></g><g transform="translate(-182,-150) scale(1,1)"><path fill="none" stroke="#000000" d="M 365 212 C 365 196.5360256 424.76997919999997 184 498.5 184 C 572.2300208 184 632 196.5360256 632 212 C 632 227.4639744 572.2300208 240 498.5 240 C 424.76997919999997 240 365 227.4639744 365 212 Z" stroke-miterlimit="10"/></g><g transform="translate(-182,-150) scale(1,1)"><g><path fill="none" stroke="none"/><text fill="#000000" stroke="none" font-family="Arial" font-size="13px" font-style="normal" font-weight="bold" text-decoration="none" x="432.754150390625" y="211">Select Active Armour</text><text fill="#000000" stroke="none" font-family="Arial" font-size="13px" font-style="normal" font-weight="bold" text-decoration="none" x="476.11181640625" y="224">(RF-10)</text></g></g><g transform="translate(-182,-150) scale(1,1)"><path fill="#C0C0C0" stroke="none" d="M 372 289 C 372 274.6405952 431.76997919999997 263 505.5 263 C 579.2300208 263 639 274.6405952 639 289 C 639 303.3594048 579.2300208 315 505.5 315 C 431.76997919999997 315 372 303.3594048 372 289 Z" opacity="0.2"/></g><g transform="translate(-182,-150) scale(1,1)"><path fill="#ebffd8" stroke="none" d="M 365 282 C 365 267.6405952 424.76997919999997 256 498.5 256 C 572.2300208 256 632 267.6405952 632 282 C 632 296.3594048 572.2300208 308 498.5 308 C 424.76997919999997 308 365 296.3594048 365 282 Z"/></g><g transform="translate(-182,-150) scale(1,1)"><path fill="none" stroke="#000000" d="M 365 282 C 365 267.6405952 424.76997919999997 256 498.5 256 C 572.2300208 256 632 267.6405952 632 282 C 632 296.3594048 572.2300208 308 498.5 308 C 424.76997919999997 308 365 296.3594048 365 282 Z" stroke-miterlimit="10"/></g><g transform="translate(-182,-150) scale(1,1)"><g><path fill="none" stroke="none"/><text fill="#000000" stroke="none" font-family="Arial" font-size="13px" font-style="normal" font-weight="bold" text-decoration="none" x="410.48974609375" y="287.5">Select Active Weapon (RF-9)</text></g></g><g transform="translate(-182,-150) scale(1,1)"><path fill="none" stroke="#000000" d="M 230 263 Q 232 208 364 210" stroke-miterlimit="10"/></g><g transform="translate(-182,-150) scale(1,1)"><path fill="none" stroke="#000000" d="M 264 299 Q 280 288 364 286" stroke-miterlimit="10"/></g><g transform="translate(-182,-150) scale(1,1)"><path fill="none" stroke="#000000" d="M 264 350 Q 288 368 364 369" stroke-miterlimit="10"/></g><g transform="translate(-182,-150) scale(1,1)"><path fill="none" stroke="#000000" d="M 230 384 Q 232 432 367 433" stroke-miterlimit="10"/></g><g transform="translate(-182,-150) scale(1,1)"><path fill="none" stroke="#000000" d="M 633 369 Q 688 369 688 325 Q 688 281 633 281" stroke-miterlimit="10" stroke-dasharray="3"/></g><g transform="translate(-182,-150) scale(1,1)"><path fill="none" stroke="#000000" d="M 643.1626748576241 276.790482243984 L 633 281 L 643.1626748576241 285.209517756016" stroke-miterlimit="10"/></g><g transform="translate(-182,-150) scale(1,1)"><g><path fill="none" stroke="none"/><text fill="#000000" stroke="none" font-family="Arial" font-size="13px" font-style="normal" font-weight="normal" text-decoration="none" x="627.5" y="328">«include»</text></g></g><g transform="translate(-182,-150) scale(1,1)"><path fill="none" stroke="#000000" d="M 633 370 Q 784 369 784 284.5 Q 784 200 633 206" stroke-miterlimit="10" stroke-dasharray="3"/></g><g transform="translate(-182,-150) scale(1,1)"><path fill="none" stroke="#000000" d="M 642.987527816586 201.39030498699515 L 633 206 L 643.3217952492947 209.80270204349966" stroke-miterlimit="10"/></g><g transform="translate(-182,-150) scale(1,1)"><g><path fill="none" stroke="none"/><text fill="#000000" stroke="none" font-family="Arial" font-size="13px" font-style="normal" font-weight="normal" text-decoration="none" x="715.5" y="291">«include»</text></g></g></g></svg>