<svg version="1.1" xmlns="http://www.w3.org/2000/svg" xmlns:xlink="http://www.w3.org/1999/xlink" width="540" height="668"><defs/><g><g transform="translate(-102,-38) scale(1,1)"><rect fill="#C0C0C0" stroke="none" x="247" y="55" width="392" height="648" opacity="0.2"/></g><g transform="translate(-102,-38) scale(1,1)"><rect fill="#ffffff" stroke="none" x="240" y="48" width="392" height="648"/></g><g transform="translate(-102,-38) scale(1,1)"><path fill="none" stroke="#000000" d="M 240 48 L 632 48 L 632 696 L 240 696 L 240 48 Z Z" stroke-miterlimit="10"/></g><g transform="translate(-102,-38) scale(1,1)"><g><path fill="none" stroke="none"/><text fill="#000000" stroke="none" font-family="Arial" font-size="13px" font-style="normal" font-weight="bold" text-decoration="none" x="412.87548828125" y="66">System</text></g></g><g transform="translate(-102,-38) scale(1,1)"><path fill="#ffffff" stroke="none" d="M 128.84207581676137 344.48 C 128.84207581676137 335.930631296 135.60631986388864 329 143.950439453125 329 C 152.29455904236136 329 159.05880308948863 335.930631296 159.05880308948863 344.48 C 159.05880308948863 353.02936870400003 152.29455904236136 359.96 143.950439453125 359.96 C 135.60631986388864 359.96 128.84207581676137 353.02936870400003 128.84207581676137 344.48 Z"/></g><g transform="translate(-102,-38) scale(1,1)"><path fill="none" stroke="#000000" d="M 128.84207581676137 344.48 C 128.84207581676137 335.930631296 135.60631986388864 329 143.950439453125 329 C 152.29455904236136 329 159.05880308948863 335.930631296 159.05880308948863 344.48 C 159.05880308948863 353.02936870400003 152.29455904236136 359.96 143.950439453125 359.96 C 135.60631986388864 359.96 128.84207581676137 353.02936870400003 128.84207581676137 344.48 Z" stroke-miterlimit="10"/></g><g transform="translate(-102,-38) scale(1,1)"><path fill="none" stroke="#000000" d="M 143.950439453125 359.96 L 143.950439453125 390.04" stroke-miterlimit="10"/></g><g transform="translate(-102,-38) scale(1,1)"><path fill="none" stroke="#000000" d="M 127.95334854403409 371.24 L 159.9475303622159 371.24" stroke-miterlimit="10"/></g><g transform="translate(-102,-38) scale(1,1)"><path fill="none" stroke="#000000" d="M 143.950439453125 390.04 L 121.73225763494318 421" stroke-miterlimit="10"/></g><g transform="translate(-102,-38) scale(1,1)"><path fill="none" stroke="#000000" d="M 143.950439453125 390.04 L 166.16862127130682 421" stroke-miterlimit="10"/></g><g transform="translate(-102,-38) scale(1,1)"><g><path fill="none" stroke="none"/><text fill="#000000" stroke="none" font-family="Arial" font-size="13px" font-style="normal" font-weight="bold" text-decoration="none" x="116.5" y="440">Operator</text></g></g><g transform="translate(-102,-38) scale(1,1)"><path fill="#C0C0C0" stroke="none" d="M 314 122.5 C 314 102.8938896 373.0984064 87 446 87 C 518.9015936 87 578 102.8938896 578 122.5 C 578 142.1061104 518.9015936 158 446 158 C 373.0984064 158 314 142.1061104 314 122.5 Z" opacity="0.2"/></g><g transform="translate(-102,-38) scale(1,1)"><path fill="#d8f2ff" stroke="none" d="M 307 115.5 C 307 95.8938896 366.0984064 80 439 80 C 511.9015936 80 571 95.8938896 571 115.5 C 571 135.1061104 511.9015936 151 439 151 C 366.0984064 151 307 135.1061104 307 115.5 Z"/></g><g transform="translate(-102,-38) scale(1,1)"><path fill="none" stroke="#000000" d="M 307 115.5 C 307 95.8938896 366.0984064 80 439 80 C 511.9015936 80 571 95.8938896 571 115.5 C 571 135.1061104 511.9015936 151 439 151 C 366.0984064 151 307 135.1061104 307 115.5 Z" stroke-miterlimit="10"/></g><g transform="translate(-102,-38) scale(1,1)"><g><path fill="none" stroke="none"/><text fill="#000000" stroke="none" font-family="Arial" font-size="13px" font-style="normal" font-weight="bold" text-decoration="none" x="368.20458984375" y="114.5">Modify Character Stats</text><text fill="#000000" stroke="none" font-family="Arial" font-size="13px" font-style="normal" font-weight="bold" text-decoration="none" x="420.226806640625" y="127.5">(RF-7)</text></g></g><g transform="translate(-102,-38) scale(1,1)"><path fill="#C0C0C0" stroke="none" d="M 314 213.5 C 314 193.8938896 373.0984064 178 446 178 C 518.9015936 178 578 193.8938896 578 213.5 C 578 233.1061104 518.9015936 249 446 249 C 373.0984064 249 314 233.1061104 314 213.5 Z" opacity="0.2"/></g><g transform="translate(-102,-38) scale(1,1)"><path fill="#ebffd8" stroke="none" d="M 307 206.5 C 307 186.8938896 366.0984064 171 439 171 C 511.9015936 171 571 186.8938896 571 206.5 C 571 226.1061104 511.9015936 242 439 242 C 366.0984064 242 307 226.1061104 307 206.5 Z"/></g><g transform="translate(-102,-38) scale(1,1)"><path fill="none" stroke="#000000" d="M 307 206.5 C 307 186.8938896 366.0984064 171 439 171 C 511.9015936 171 571 186.8938896 571 206.5 C 571 226.1061104 511.9015936 242 439 242 C 366.0984064 242 307 226.1061104 307 206.5 Z" stroke-miterlimit="10"/></g><g transform="translate(-102,-38) scale(1,1)"><g><path fill="none" stroke="none"/><text fill="#000000" stroke="none" font-family="Arial" font-size="13px" font-style="normal" font-weight="bold" text-decoration="none" x="359.30517578125" y="205.5">Add Weapon to Character</text><text fill="#000000" stroke="none" font-family="Arial" font-size="13px" font-style="normal" font-weight="bold" text-decoration="none" x="367.249267578125" y="218.5">set of Weapons (RF-11)</text></g></g><g transform="translate(-102,-38) scale(1,1)"><path fill="#C0C0C0" stroke="none" d="M 314 304.5 C 314 284.8938896 373.0984064 269 446 269 C 518.9015936 269 578 284.8938896 578 304.5 C 578 324.1061104 518.9015936 340 446 340 C 373.0984064 340 314 324.1061104 314 304.5 Z" opacity="0.2"/></g><g transform="translate(-102,-38) scale(1,1)"><path fill="#ffd8d8" stroke="none" d="M 307 297.5 C 307 277.8938896 366.0984064 262 439 262 C 511.9015936 262 571 277.8938896 571 297.5 C 571 317.1061104 511.9015936 333 439 333 C 366.0984064 333 307 317.1061104 307 297.5 Z"/></g><g transform="translate(-102,-38) scale(1,1)"><path fill="none" stroke="#000000" d="M 307 297.5 C 307 277.8938896 366.0984064 262 439 262 C 511.9015936 262 571 277.8938896 571 297.5 C 571 317.1061104 511.9015936 333 439 333 C 366.0984064 333 307 317.1061104 307 297.5 Z" stroke-miterlimit="10"/></g><g transform="translate(-102,-38) scale(1,1)"><g><path fill="none" stroke="none"/><text fill="#000000" stroke="none" font-family="Arial" font-size="13px" font-style="normal" font-weight="bold" text-decoration="none" x="378.80517578125" y="290">Remove Weapon to</text><text fill="#000000" stroke="none" font-family="Arial" font-size="13px" font-style="normal" font-weight="bold" text-decoration="none" x="358.9306640625" y="303">Character set of Weapons</text><text fill="#000000" stroke="none" font-family="Arial" font-size="13px" font-style="normal" font-weight="bold" text-decoration="none" x="416.61181640625" y="316">(RF-12)</text></g></g><g transform="translate(-102,-38) scale(1,1)"><path fill="#C0C0C0" stroke="none" d="M 314 395.5 C 314 375.8938896 373.0984064 360 446 360 C 518.9015936 360 578 375.8938896 578 395.5 C 578 415.1061104 518.9015936 431 446 431 C 373.0984064 431 314 415.1061104 314 395.5 Z" opacity="0.2"/></g><g transform="translate(-102,-38) scale(1,1)"><path fill="#ebffd8" stroke="none" d="M 307 388.5 C 307 368.8938896 366.0984064 353 439 353 C 511.9015936 353 571 368.8938896 571 388.5 C 571 408.1061104 511.9015936 424 439 424 C 366.0984064 424 307 408.1061104 307 388.5 Z"/></g><g transform="translate(-102,-38) scale(1,1)"><path fill="none" stroke="#000000" d="M 307 388.5 C 307 368.8938896 366.0984064 353 439 353 C 511.9015936 353 571 368.8938896 571 388.5 C 571 408.1061104 511.9015936 424 439 424 C 366.0984064 424 307 408.1061104 307 388.5 Z" stroke-miterlimit="10"/></g><g transform="translate(-102,-38) scale(1,1)"><g><path fill="none" stroke="none"/><text fill="#000000" stroke="none" font-family="Arial" font-size="13px" font-style="normal" font-weight="bold" text-decoration="none" x="360.990478515625" y="387.5">Add Armour to Character</text><text fill="#000000" stroke="none" font-family="Arial" font-size="13px" font-style="normal" font-weight="bold" text-decoration="none" x="368.575927734375" y="400.5">set of Armours (RF-13)</text></g></g><g transform="translate(-102,-38) scale(1,1)"><path fill="#C0C0C0" stroke="none" d="M 314 486.5 C 314 466.8938896 373.0984064 451 446 451 C 518.9015936 451 578 466.8938896 578 486.5 C 578 506.1061104 518.9015936 522 446 522 C 373.0984064 522 314 506.1061104 314 486.5 Z" opacity="0.2"/></g><g transform="translate(-102,-38) scale(1,1)"><path fill="#ffd8d8" stroke="none" d="M 307 479.5 C 307 459.8938896 366.0984064 444 439 444 C 511.9015936 444 571 459.8938896 571 479.5 C 571 499.1061104 511.9015936 515 439 515 C 366.0984064 515 307 499.1061104 307 479.5 Z"/></g><g transform="translate(-102,-38) scale(1,1)"><path fill="none" stroke="#000000" d="M 307 479.5 C 307 459.8938896 366.0984064 444 439 444 C 511.9015936 444 571 459.8938896 571 479.5 C 571 499.1061104 511.9015936 515 439 515 C 366.0984064 515 307 499.1061104 307 479.5 Z" stroke-miterlimit="10"/></g><g transform="translate(-102,-38) scale(1,1)"><g><path fill="none" stroke="none"/><text fill="#000000" stroke="none" font-family="Arial" font-size="13px" font-style="normal" font-weight="bold" text-decoration="none" x="380.490478515625" y="472">Remove Armour to</text><text fill="#000000" stroke="none" font-family="Arial" font-size="13px" font-style="normal" font-weight="bold" text-decoration="none" x="360.615966796875" y="485">Character set of Armours</text><text fill="#000000" stroke="none" font-family="Arial" font-size="13px" font-style="normal" font-weight="bold" text-decoration="none" x="416.61181640625" y="498">(RF-14)</text></g></g><g transform="translate(-102,-38) scale(1,1)"><path fill="#C0C0C0" stroke="none" d="M 314 573.5 C 314 556.1030288 373.0984064 542 446 542 C 518.9015936 542 578 556.1030288 578 573.5 C 578 590.8969712 518.9015936 605 446 605 C 373.0984064 605 314 590.8969712 314 573.5 Z" opacity="0.2"/></g><g transform="translate(-102,-38) scale(1,1)"><path fill="#ebffd8" stroke="none" d="M 307 566.5 C 307 549.1030288 366.0984064 535 439 535 C 511.9015936 535 571 549.1030288 571 566.5 C 571 583.8969712 511.9015936 598 439 598 C 366.0984064 598 307 583.8969712 307 566.5 Z"/></g><g transform="translate(-102,-38) scale(1,1)"><path fill="none" stroke="#000000" d="M 307 566.5 C 307 549.1030288 366.0984064 535 439 535 C 511.9015936 535 571 549.1030288 571 566.5 C 571 583.8969712 511.9015936 598 439 598 C 366.0984064 598 307 583.8969712 307 566.5 Z" stroke-miterlimit="10"/></g><g transform="translate(-102,-38) scale(1,1)"><g><path fill="none" stroke="none"/><text fill="#000000" stroke="none" font-family="Arial" font-size="13px" font-style="normal" font-weight="bold" text-decoration="none" x="359.187744140625" y="565.5">Add Modifier to Character</text><text fill="#000000" stroke="none" font-family="Arial" font-size="13px" font-style="normal" font-weight="bold" text-decoration="none" x="416.61181640625" y="578.5">(RF-15)</text></g></g><g transform="translate(-102,-38) scale(1,1)"><path fill="#C0C0C0" stroke="none" d="M 314 656.5 C 314 639.1030288 373.0984064 625 446 625 C 518.9015936 625 578 639.1030288 578 656.5 C 578 673.8969712 518.9015936 688 446 688 C 373.0984064 688 314 673.8969712 314 656.5 Z" opacity="0.2"/></g><g transform="translate(-102,-38) scale(1,1)"><path fill="#ffd8d8" stroke="none" d="M 307 649.5 C 307 632.1030288 366.0984064 618 439 618 C 511.9015936 618 571 632.1030288 571 649.5 C 571 666.8969712 511.9015936 681 439 681 C 366.0984064 681 307 666.8969712 307 649.5 Z"/></g><g transform="translate(-102,-38) scale(1,1)"><path fill="none" stroke="#000000" d="M 307 649.5 C 307 632.1030288 366.0984064 618 439 618 C 511.9015936 618 571 632.1030288 571 649.5 C 571 666.8969712 511.9015936 681 439 681 C 366.0984064 681 307 666.8969712 307 649.5 Z" stroke-miterlimit="10"/></g><g transform="translate(-102,-38) scale(1,1)"><g><path fill="none" stroke="none"/><text fill="#000000" stroke="none" font-family="Arial" font-size="13px" font-style="normal" font-weight="bold" text-decoration="none" x="378.687744140625" y="648.5">Remove Modifier to</text><text fill="#000000" stroke="none" font-family="Arial" font-size="13px" font-style="normal" font-weight="bold" text-decoration="none" x="384.457763671875" y="661.5">Character (RF-16)</text></g></g><g transform="translate(-102,-38) scale(1,1)"><path fill="none" stroke="#000000" d="M 143 327 Q 144 120 306 117" stroke-miterlimit="10"/></g><g transform="translate(-102,-38) scale(1,1)"><path fill="none" stroke="#000000" d="M 143 327 Q 144 208 306 207" stroke-miterlimit="10"/></g><g transform="translate(-102,-38) scale(1,1)"><path fill="none" stroke="#000000" d="M 144 327 Q 144 296 306 297" stroke-miterlimit="10"/></g><g transform="translate(-102,-38) scale(1,1)"><path fill="none" stroke="#000000" d="M 177 387 L 306 388" stroke-miterlimit="10"/></g><g transform="translate(-102,-38) scale(1,1)"><path fill="none" stroke="#000000" d="M 144 448 Q 144 480 306 479" stroke-miterlimit="10"/></g><g transform="translate(-102,-38) scale(1,1)"><path fill="none" stroke="#000000" d="M 143 448 Q 144 568 306 567" stroke-miterlimit="10"/></g><g transform="translate(-102,-38) scale(1,1)"><path fill="none" stroke="#000000" d="M 143 448 Q 144 648 306 649" stroke-miterlimit="10"/></g></g></svg>