<svg version="1.1" xmlns="http://www.w3.org/2000/svg" xmlns:xlink="http://www.w3.org/1999/xlink" width="491" height="308"><defs/><g><g transform="translate(-326,-118) scale(1,1)"><rect fill="#C0C0C0" stroke="none" x="478" y="135" width="336" height="288" opacity="0.2"/></g><g transform="translate(-326,-118) scale(1,1)"><rect fill="#ffffff" stroke="none" x="471" y="128" width="336" height="288"/></g><g transform="translate(-326,-118) scale(1,1)"><path fill="none" stroke="#000000" d="M 471 128 L 807 128 L 807 416 L 471 416 L 471 128 Z Z" stroke-miterlimit="10"/></g><g transform="translate(-326,-118) scale(1,1)"><g><path fill="none" stroke="none"/><text fill="#000000" stroke="none" font-family="Arial" font-size="13px" font-style="normal" font-weight="bold" text-decoration="none" x="615.87548828125" y="146">System</text></g></g><g transform="translate(-326,-118) scale(1,1)"><path fill="#C0C0C0" stroke="none" d="M 534 199.5 C 534 179.8938896 584.1441024 164 646 164 C 707.8558976 164 758 179.8938896 758 199.5 C 758 219.1061104 707.8558976 235 646 235 C 584.1441024 235 534 219.1061104 534 199.5 Z" opacity="0.2"/></g><g transform="translate(-326,-118) scale(1,1)"><path fill="#ffd8d8" stroke="none" d="M 527 192.5 C 527 172.8938896 577.1441024 157 639 157 C 700.8558976 157 751 172.8938896 751 192.5 C 751 212.1061104 700.8558976 228 639 228 C 577.1441024 228 527 212.1061104 527 192.5 Z"/></g><g transform="translate(-326,-118) scale(1,1)"><path fill="none" stroke="#000000" d="M 527 192.5 C 527 172.8938896 577.1441024 157 639 157 C 700.8558976 157 751 172.8938896 751 192.5 C 751 212.1061104 700.8558976 228 639 228 C 577.1441024 228 527 212.1061104 527 192.5 Z" stroke-miterlimit="10"/></g><g transform="translate(-326,-118) scale(1,1)"><g><path fill="none" stroke="none"/><text fill="#000000" stroke="none" font-family="Arial" font-size="13px" font-style="normal" font-weight="bold" text-decoration="none" x="586.266845703125" y="198">Ban User (RF-23)</text></g></g><g transform="translate(-326,-118) scale(1,1)"><path fill="#C0C0C0" stroke="none" d="M 534 288.5 C 534 268.8938896 584.1441024 253 646 253 C 707.8558976 253 758 268.8938896 758 288.5 C 758 308.1061104 707.8558976 324 646 324 C 584.1441024 324 534 308.1061104 534 288.5 Z" opacity="0.2"/></g><g transform="translate(-326,-118) scale(1,1)"><path fill="#ebffd8" stroke="none" d="M 527 281.5 C 527 261.8938896 577.1441024 246 639 246 C 700.8558976 246 751 261.8938896 751 281.5 C 751 301.1061104 700.8558976 317 639 317 C 577.1441024 317 527 301.1061104 527 281.5 Z"/></g><g transform="translate(-326,-118) scale(1,1)"><path fill="none" stroke="#000000" d="M 527 281.5 C 527 261.8938896 577.1441024 246 639 246 C 700.8558976 246 751 261.8938896 751 281.5 C 751 301.1061104 700.8558976 317 639 317 C 577.1441024 317 527 301.1061104 527 281.5 Z" stroke-miterlimit="10"/></g><g transform="translate(-326,-118) scale(1,1)"><g><path fill="none" stroke="none"/><text fill="#000000" stroke="none" font-family="Arial" font-size="13px" font-style="normal" font-weight="bold" text-decoration="none" x="578.325927734375" y="287">Unban User (RF-24)</text></g></g><g transform="translate(-326,-118) scale(1,1)"><path fill="#ffffff" stroke="none" d="M 356.39163636363634 232.48000000000002 C 356.39163636363634 223.930631296 363.15588041076364 217 371.5 217 C 379.84411958923636 217 386.60836363636366 223.930631296 386.60836363636366 232.48000000000002 C 386.60836363636366 241.02936870400003 379.84411958923636 247.96 371.5 247.96 C 363.15588041076364 247.96 356.39163636363634 241.02936870400003 356.39163636363634 232.48000000000002 Z"/></g><g transform="translate(-326,-118) scale(1,1)"><path fill="none" stroke="#000000" d="M 356.39163636363634 232.48000000000002 C 356.39163636363634 223.930631296 363.15588041076364 217 371.5 217 C 379.84411958923636 217 386.60836363636366 223.930631296 386.60836363636366 232.48000000000002 C 386.60836363636366 241.02936870400003 379.84411958923636 247.96 371.5 247.96 C 363.15588041076364 247.96 356.39163636363634 241.02936870400003 356.39163636363634 232.48000000000002 Z" stroke-miterlimit="10"/></g><g transform="translate(-326,-118) scale(1,1)"><path fill="none" stroke="#000000" d="M 371.5 247.96 L 371.5 278.04" stroke-miterlimit="10"/></g><g transform="translate(-326,-118) scale(1,1)"><path fill="none" stroke="#000000" d="M 355.50290909090904 259.24 L 387.49709090909096 259.24" stroke-miterlimit="10"/></g><g transform="translate(-326,-118) scale(1,1)"><path fill="none" stroke="#000000" d="M 371.5 278.04 L 349.28181818181815 309" stroke-miterlimit="10"/></g><g transform="translate(-326,-118) scale(1,1)"><path fill="none" stroke="#000000" d="M 371.5 278.04 L 393.71818181818185 309" stroke-miterlimit="10"/></g><g transform="translate(-326,-118) scale(1,1)"><g><path fill="none" stroke="none"/><text fill="#000000" stroke="none" font-family="Arial" font-size="13px" font-style="normal" font-weight="bold" text-decoration="none" x="344.049560546875" y="328">Operator</text></g></g><g transform="translate(-326,-118) scale(1,1)"><path fill="none" stroke="#000000" d="M 408 239 Q 456 192 526 192" stroke-miterlimit="10"/></g><g transform="translate(-326,-118) scale(1,1)"><path fill="none" stroke="#000000" d="M 408 281 Q 448 288 526 285" stroke-miterlimit="10"/></g><g transform="translate(-326,-118) scale(1,1)"><path fill="#C0C0C0" stroke="none" d="M 534 377.5 C 534 357.8938896 584.1441024 342 646 342 C 707.8558976 342 758 357.8938896 758 377.5 C 758 397.1061104 707.8558976 413 646 413 C 584.1441024 413 534 397.1061104 534 377.5 Z" opacity="0.2"/></g><g transform="translate(-326,-118) scale(1,1)"><path fill="#d8f2ff" stroke="none" d="M 527 370.5 C 527 350.8938896 577.1441024 335 639 335 C 700.8558976 335 751 350.8938896 751 370.5 C 751 390.1061104 700.8558976 406 639 406 C 577.1441024 406 527 390.1061104 527 370.5 Z"/></g><g transform="translate(-326,-118) scale(1,1)"><path fill="none" stroke="#000000" d="M 527 370.5 C 527 350.8938896 577.1441024 335 639 335 C 700.8558976 335 751 350.8938896 751 370.5 C 751 390.1061104 700.8558976 406 639 406 C 577.1441024 406 527 390.1061104 527 370.5 Z" stroke-miterlimit="10"/></g><g transform="translate(-326,-118) scale(1,1)"><g><path fill="none" stroke="none"/><text fill="#000000" stroke="none" font-family="Arial" font-size="13px" font-style="normal" font-weight="bold" text-decoration="none" x="574.71728515625" y="369.5">Log out from system</text><text fill="#000000" stroke="none" font-family="Arial" font-size="13px" font-style="normal" font-weight="bold" text-decoration="none" x="620.226806640625" y="382.5">(RF-5)</text></g></g><g transform="translate(-326,-118) scale(1,1)"><path fill="none" stroke="#000000" d="M 408 312 Q 448 352 526 359" stroke-miterlimit="10"/></g></g></svg>