<svg version="1.1" xmlns="http://www.w3.org/2000/svg" xmlns:xlink="http://www.w3.org/1999/xlink" width="700" height="452"><defs/><g><g transform="translate(-214,-102) scale(1,1)"><rect fill="#C0C0C0" stroke="none" x="399" y="119" width="367" height="432" opacity="0.2"/></g><g transform="translate(-214,-102) scale(1,1)"><rect fill="#ffffff" stroke="none" x="392" y="112" width="367" height="432"/></g><g transform="translate(-214,-102) scale(1,1)"><path fill="none" stroke="#000000" d="M 392 112 L 759 112 L 759 544 L 392 544 L 392 112 Z Z" stroke-miterlimit="10"/></g><g transform="translate(-214,-102) scale(1,1)"><g><path fill="none" stroke="none"/><text fill="#000000" stroke="none" font-family="Arial" font-size="13px" font-style="normal" font-weight="bold" text-decoration="none" x="552.37548828125" y="130">System</text></g></g><g transform="translate(-214,-102) scale(1,1)"><path fill="#ffffff" stroke="none" d="M 266.48343323863634 152.48000000000002 C 266.48343323863634 143.930631296 273.24767728576364 137 281.591796875 137 C 289.93591646423636 137 296.70016051136366 143.930631296 296.70016051136366 152.48000000000002 C 296.70016051136366 161.02936870400003 289.93591646423636 167.96 281.591796875 167.96 C 273.24767728576364 167.96 266.48343323863634 161.02936870400003 266.48343323863634 152.48000000000002 Z"/></g><g transform="translate(-214,-102) scale(1,1)"><path fill="none" stroke="#000000" d="M 266.48343323863634 152.48000000000002 C 266.48343323863634 143.930631296 273.24767728576364 137 281.591796875 137 C 289.93591646423636 137 296.70016051136366 143.930631296 296.70016051136366 152.48000000000002 C 296.70016051136366 161.02936870400003 289.93591646423636 167.96 281.591796875 167.96 C 273.24767728576364 167.96 266.48343323863634 161.02936870400003 266.48343323863634 152.48000000000002 Z" stroke-miterlimit="10"/></g><g transform="translate(-214,-102) scale(1,1)"><path fill="none" stroke="#000000" d="M 281.591796875 167.96 L 281.591796875 198.04" stroke-miterlimit="10"/></g><g transform="translate(-214,-102) scale(1,1)"><path fill="none" stroke="#000000" d="M 265.59470596590904 179.24 L 297.58888778409096 179.24" stroke-miterlimit="10"/></g><g transform="translate(-214,-102) scale(1,1)"><path fill="none" stroke="#000000" d="M 281.591796875 198.04 L 259.37361505681815 229" stroke-miterlimit="10"/></g><g transform="translate(-214,-102) scale(1,1)"><path fill="none" stroke="#000000" d="M 281.591796875 198.04 L 303.80997869318185 229" stroke-miterlimit="10"/></g><g transform="translate(-214,-102) scale(1,1)"><g><path fill="none" stroke="none"/><text fill="#000000" stroke="none" font-family="Arial" font-size="13px" font-style="normal" font-weight="bold" text-decoration="none" x="228.5" y="248">Anonymous user</text></g></g><g transform="translate(-214,-102) scale(1,1)"><path fill="#C0C0C0" stroke="none" d="M 463 207 C 463 189.3268864 516.5019664 175 582.5 175 C 648.4980336 175 702 189.3268864 702 207 C 702 224.6731136 648.4980336 239 582.5 239 C 516.5019664 239 463 224.6731136 463 207 Z" opacity="0.2"/></g><g transform="translate(-214,-102) scale(1,1)"><path fill="#ebffd8" stroke="none" d="M 456 200 C 456 182.3268864 509.5019664 168 575.5 168 C 641.4980336 168 695 182.3268864 695 200 C 695 217.6731136 641.4980336 232 575.5 232 C 509.5019664 232 456 217.6731136 456 200 Z"/></g><g transform="translate(-214,-102) scale(1,1)"><path fill="none" stroke="#000000" d="M 456 200 C 456 182.3268864 509.5019664 168 575.5 168 C 641.4980336 168 695 182.3268864 695 200 C 695 217.6731136 641.4980336 232 575.5 232 C 509.5019664 232 456 217.6731136 456 200 Z" stroke-miterlimit="10"/></g><g transform="translate(-214,-102) scale(1,1)"><g><path fill="none" stroke="none"/><text fill="#000000" stroke="none" font-family="Arial" font-size="13px" font-style="normal" font-weight="bold" text-decoration="none" x="506.8818359375" y="205.5">Create Account (RF-1)</text></g></g><g transform="translate(-214,-102) scale(1,1)"><path fill="#C0C0C0" stroke="none" d="M 463 295 C 463 277.3268864 516.5019664 263 582.5 263 C 648.4980336 263 702 277.3268864 702 295 C 702 312.6731136 648.4980336 327 582.5 327 C 516.5019664 327 463 312.6731136 463 295 Z" opacity="0.2"/></g><g transform="translate(-214,-102) scale(1,1)"><path fill="#ffd8d8" stroke="none" d="M 456 288 C 456 270.3268864 509.5019664 256 575.5 256 C 641.4980336 256 695 270.3268864 695 288 C 695 305.6731136 641.4980336 320 575.5 320 C 509.5019664 320 456 305.6731136 456 288 Z"/></g><g transform="translate(-214,-102) scale(1,1)"><path fill="none" stroke="#000000" d="M 456 288 C 456 270.3268864 509.5019664 256 575.5 256 C 641.4980336 256 695 270.3268864 695 288 C 695 305.6731136 641.4980336 320 575.5 320 C 509.5019664 320 456 305.6731136 456 288 Z" stroke-miterlimit="10"/></g><g transform="translate(-214,-102) scale(1,1)"><g><path fill="none" stroke="none"/><text fill="#000000" stroke="none" font-family="Arial" font-size="13px" font-style="normal" font-weight="bold" text-decoration="none" x="507.60546875" y="293.5">Delete Account (RF-2)</text></g></g><g transform="translate(-214,-102) scale(1,1)"><path fill="none" stroke="#000000" d="M 340 196 L 455 198" stroke-miterlimit="10"/></g><g transform="translate(-214,-102) scale(1,1)"><path fill="#ffffff" stroke="none" d="M 852.7309090909091 280.65 C 852.7309090909091 272.00674288 859.5671131810909 265 868 265 C 876.4328868189091 265 883.2690909090909 272.00674288 883.2690909090909 280.65 C 883.2690909090909 289.29325711999996 876.4328868189091 296.3 868 296.3 C 859.5671131810909 296.3 852.7309090909091 289.29325711999996 852.7309090909091 280.65 Z"/></g><g transform="translate(-214,-102) scale(1,1)"><path fill="none" stroke="#000000" d="M 852.7309090909091 280.65 C 852.7309090909091 272.00674288 859.5671131810909 265 868 265 C 876.4328868189091 265 883.2690909090909 272.00674288 883.2690909090909 280.65 C 883.2690909090909 289.29325711999996 876.4328868189091 296.3 868 296.3 C 859.5671131810909 296.3 852.7309090909091 289.29325711999996 852.7309090909091 280.65 Z" stroke-miterlimit="10"/></g><g transform="translate(-214,-102) scale(1,1)"><path fill="none" stroke="#000000" d="M 868 296.3 L 868 326.7" stroke-miterlimit="10"/></g><g transform="translate(-214,-102) scale(1,1)"><path fill="none" stroke="#000000" d="M 851.8327272727272 307.7 L 884.1672727272728 307.7" stroke-miterlimit="10"/></g><g transform="translate(-214,-102) scale(1,1)"><path fill="none" stroke="#000000" d="M 868 326.7 L 845.5454545454545 358" stroke-miterlimit="10"/></g><g transform="translate(-214,-102) scale(1,1)"><path fill="none" stroke="#000000" d="M 868 326.7 L 890.4545454545455 358" stroke-miterlimit="10"/></g><g transform="translate(-214,-102) scale(1,1)"><g><path fill="none" stroke="none"/><text fill="#000000" stroke="none" font-family="Arial" font-size="13px" font-style="normal" font-weight="bold" text-decoration="none" x="840.549560546875" y="377">Operator</text></g></g><g transform="translate(-214,-102) scale(1,1)"><path fill="none" stroke="#000000" d="M 831 309 Q 800 296 696 292" stroke-miterlimit="10"/></g><g transform="translate(-214,-102) scale(1,1)"><path fill="#ffffff" stroke="none" d="M 261.7309090909091 296.65 C 261.7309090909091 288.00674288 268.5671131810909 281 277 281 C 285.4328868189091 281 292.26909090909095 288.00674288 292.26909090909095 296.65 C 292.26909090909095 305.29325711999996 285.4328868189091 312.3 277 312.3 C 268.5671131810909 312.3 261.7309090909091 305.29325711999996 261.7309090909091 296.65 Z"/></g><g transform="translate(-214,-102) scale(1,1)"><path fill="none" stroke="#000000" d="M 261.7309090909091 296.65 C 261.7309090909091 288.00674288 268.5671131810909 281 277 281 C 285.4328868189091 281 292.26909090909095 288.00674288 292.26909090909095 296.65 C 292.26909090909095 305.29325711999996 285.4328868189091 312.3 277 312.3 C 268.5671131810909 312.3 261.7309090909091 305.29325711999996 261.7309090909091 296.65 Z" stroke-miterlimit="10"/></g><g transform="translate(-214,-102) scale(1,1)"><path fill="none" stroke="#000000" d="M 277 312.3 L 277 342.7" stroke-miterlimit="10"/></g><g transform="translate(-214,-102) scale(1,1)"><path fill="none" stroke="#000000" d="M 260.83272727272725 323.7 L 293.16727272727275 323.7" stroke-miterlimit="10"/></g><g transform="translate(-214,-102) scale(1,1)"><path fill="none" stroke="#000000" d="M 277 342.7 L 254.54545454545453 374" stroke-miterlimit="10"/></g><g transform="translate(-214,-102) scale(1,1)"><path fill="none" stroke="#000000" d="M 277 342.7 L 299.4545454545455 374" stroke-miterlimit="10"/></g><g transform="translate(-214,-102) scale(1,1)"><g><path fill="none" stroke="none"/><text fill="#000000" stroke="none" font-family="Arial" font-size="13px" font-style="normal" font-weight="bold" text-decoration="none" x="262.54638671875" y="393">User</text></g></g><g transform="translate(-214,-102) scale(1,1)"><path fill="none" stroke="#000000" d="M 322 319 Q 336 312 455 300" stroke-miterlimit="10"/></g><g transform="translate(-214,-102) scale(1,1)"><path fill="#C0C0C0" stroke="none" d="M 463 375 C 463 357.3268864 516.5019664 343 582.5 343 C 648.4980336 343 702 357.3268864 702 375 C 702 392.6731136 648.4980336 407 582.5 407 C 516.5019664 407 463 392.6731136 463 375 Z" opacity="0.2"/></g><g transform="translate(-214,-102) scale(1,1)"><path fill="#d8f2ff" stroke="none" d="M 456 368 C 456 350.3268864 509.5019664 336 575.5 336 C 641.4980336 336 695 350.3268864 695 368 C 695 385.6731136 641.4980336 400 575.5 400 C 509.5019664 400 456 385.6731136 456 368 Z"/></g><g transform="translate(-214,-102) scale(1,1)"><path fill="none" stroke="#000000" d="M 456 368 C 456 350.3268864 509.5019664 336 575.5 336 C 641.4980336 336 695 350.3268864 695 368 C 695 385.6731136 641.4980336 400 575.5 400 C 509.5019664 400 456 385.6731136 456 368 Z" stroke-miterlimit="10"/></g><g transform="translate(-214,-102) scale(1,1)"><g><path fill="none" stroke="none"/><text fill="#000000" stroke="none" font-family="Arial" font-size="13px" font-style="normal" font-weight="bold" text-decoration="none" x="535.42724609375" y="373.5">Log in (RF-3)</text></g></g><g transform="translate(-214,-102) scale(1,1)"><path fill="#C0C0C0" stroke="none" d="M 463 487 C 463 469.3268864 516.5019664 455 582.5 455 C 648.4980336 455 702 469.3268864 702 487 C 702 504.6731136 648.4980336 519 582.5 519 C 516.5019664 519 463 504.6731136 463 487 Z" opacity="0.2"/></g><g transform="translate(-214,-102) scale(1,1)"><path fill="#d8f2ff" stroke="none" d="M 456 480 C 456 462.3268864 509.5019664 448 575.5 448 C 641.4980336 448 695 462.3268864 695 480 C 695 497.6731136 641.4980336 512 575.5 512 C 509.5019664 512 456 497.6731136 456 480 Z"/></g><g transform="translate(-214,-102) scale(1,1)"><path fill="none" stroke="#000000" d="M 456 480 C 456 462.3268864 509.5019664 448 575.5 448 C 641.4980336 448 695 462.3268864 695 480 C 695 497.6731136 641.4980336 512 575.5 512 C 509.5019664 512 456 497.6731136 456 480 Z" stroke-miterlimit="10"/></g><g transform="translate(-214,-102) scale(1,1)"><g><path fill="none" stroke="none"/><text fill="#000000" stroke="none" font-family="Arial" font-size="13px" font-style="normal" font-weight="bold" text-decoration="none" x="496.754150390625" y="485.5">Recover Password (RF-4)</text></g></g><g transform="translate(-214,-102) scale(1,1)"><path fill="none" stroke="#000000" d="M 831 343 Q 784 368 696 368" stroke-miterlimit="10"/></g><g transform="translate(-214,-102) scale(1,1)"><path fill="none" stroke="#000000" d="M 322 359 Q 344 368 455 368" stroke-miterlimit="10"/></g><g transform="translate(-214,-102) scale(1,1)"><path fill="none" stroke="#000000" d="M 575 447 L 575 401" stroke-miterlimit="10" stroke-dasharray="3"/></g><g transform="translate(-214,-102) scale(1,1)"><path fill="none" stroke="#000000" d="M 579.209517756016 411.16267485762415 L 575 401 L 570.790482243984 411.16267485762415" stroke-miterlimit="10"/></g><g transform="translate(-214,-102) scale(1,1)"><g><path fill="none" stroke="none"/><text fill="#000000" stroke="none" font-family="Arial" font-size="13px" font-style="normal" font-weight="normal" text-decoration="none" x="518.5" y="435">«extend»</text></g></g></g></svg>