<svg version="1.1" xmlns="http://www.w3.org/2000/svg" xmlns:xlink="http://www.w3.org/1999/xlink" width="539" height="372"><defs/><g><g transform="translate(-278,-70) scale(1,1)"><rect fill="#C0C0C0" stroke="none" x="406" y="87" width="408" height="352" opacity="0.2"/></g><g transform="translate(-278,-70) scale(1,1)"><rect fill="#ffffff" stroke="none" x="399" y="80" width="408" height="352"/></g><g transform="translate(-278,-70) scale(1,1)"><path fill="none" stroke="#000000" d="M 399 80 L 807 80 L 807 432 L 399 432 L 399 80 Z Z" stroke-miterlimit="10"/></g><g transform="translate(-278,-70) scale(1,1)"><g><path fill="none" stroke="none"/><text fill="#000000" stroke="none" font-family="Arial" font-size="13px" font-style="normal" font-weight="bold" text-decoration="none" x="579.87548828125" y="98">System</text></g></g><g transform="translate(-278,-70) scale(1,1)"><path fill="#ffffff" stroke="none" d="M 314.96327272727274 237.76 C 314.96327272727274 230.71284595199998 320.57615608552726 225 327.5 225 C 334.42384391447274 225 340.03672727272726 230.71284595199998 340.03672727272726 237.76 C 340.03672727272726 244.807154048 334.42384391447274 250.52 327.5 250.52 C 320.57615608552726 250.52 314.96327272727274 244.807154048 314.96327272727274 237.76 Z"/></g><g transform="translate(-278,-70) scale(1,1)"><path fill="none" stroke="#000000" d="M 314.96327272727274 237.76 C 314.96327272727274 230.71284595199998 320.57615608552726 225 327.5 225 C 334.42384391447274 225 340.03672727272726 230.71284595199998 340.03672727272726 237.76 C 340.03672727272726 244.807154048 334.42384391447274 250.52 327.5 250.52 C 320.57615608552726 250.52 314.96327272727274 244.807154048 314.96327272727274 237.76 Z" stroke-miterlimit="10"/></g><g transform="translate(-278,-70) scale(1,1)"><path fill="none" stroke="#000000" d="M 327.5 250.52 L 327.5 275.48" stroke-miterlimit="10"/></g><g transform="translate(-278,-70) scale(1,1)"><path fill="none" stroke="#000000" d="M 314.22581818181817 259.88 L 340.77418181818183 259.88" stroke-miterlimit="10"/></g><g transform="translate(-278,-70) scale(1,1)"><path fill="none" stroke="#000000" d="M 327.5 275.48 L 309.06363636363636 301" stroke-miterlimit="10"/></g><g transform="translate(-278,-70) scale(1,1)"><path fill="none" stroke="#000000" d="M 327.5 275.48 L 345.93636363636364 301" stroke-miterlimit="10"/></g><g transform="translate(-278,-70) scale(1,1)"><g><path fill="none" stroke="none"/><text fill="#000000" stroke="none" font-family="Arial" font-size="13px" font-style="normal" font-weight="bold" text-decoration="none" x="313.04638671875" y="320">User</text></g></g><g transform="translate(-278,-70) scale(1,1)"><path fill="#C0C0C0" stroke="none" d="M 486 222.5 C 486 205.1030288 541.5166848 191 610 191 C 678.4833152 191 734 205.1030288 734 222.5 C 734 239.8969712 678.4833152 254 610 254 C 541.5166848 254 486 239.8969712 486 222.5 Z" opacity="0.2"/></g><g transform="translate(-278,-70) scale(1,1)"><path fill="#d8f2ff" stroke="none" d="M 479 215.5 C 479 198.1030288 534.5166848 184 603 184 C 671.4833152 184 727 198.1030288 727 215.5 C 727 232.8969712 671.4833152 247 603 247 C 534.5166848 247 479 232.8969712 479 215.5 Z"/></g><g transform="translate(-278,-70) scale(1,1)"><path fill="none" stroke="#000000" d="M 479 215.5 C 479 198.1030288 534.5166848 184 603 184 C 671.4833152 184 727 198.1030288 727 215.5 C 727 232.8969712 671.4833152 247 603 247 C 534.5166848 247 479 232.8969712 479 215.5 Z" stroke-miterlimit="10"/></g><g transform="translate(-278,-70) scale(1,1)"><g><path fill="none" stroke="none"/><text fill="#000000" stroke="none" font-family="Arial" font-size="13px" font-style="normal" font-weight="bold" text-decoration="none" x="542.941650390625" y="214.5">Watch gold amount</text><text fill="#000000" stroke="none" font-family="Arial" font-size="13px" font-style="normal" font-weight="bold" text-decoration="none" x="580.61181640625" y="227.5">(RF-25)</text></g></g><g transform="translate(-278,-70) scale(1,1)"><path fill="#C0C0C0" stroke="none" d="M 486 318.5 C 486 301.1030288 541.5166848 287 610 287 C 678.4833152 287 734 301.1030288 734 318.5 C 734 335.8969712 678.4833152 350 610 350 C 541.5166848 350 486 335.8969712 486 318.5 Z" opacity="0.2"/></g><g transform="translate(-278,-70) scale(1,1)"><path fill="#d8f2ff" stroke="none" d="M 479 311.5 C 479 294.1030288 534.5166848 280 603 280 C 671.4833152 280 727 294.1030288 727 311.5 C 727 328.8969712 671.4833152 343 603 343 C 534.5166848 343 479 328.8969712 479 311.5 Z"/></g><g transform="translate(-278,-70) scale(1,1)"><path fill="none" stroke="#000000" d="M 479 311.5 C 479 294.1030288 534.5166848 280 603 280 C 671.4833152 280 727 294.1030288 727 311.5 C 727 328.8969712 671.4833152 343 603 343 C 534.5166848 343 479 328.8969712 479 311.5 Z" stroke-miterlimit="10"/></g><g transform="translate(-278,-70) scale(1,1)"><g><path fill="none" stroke="none"/><text fill="#000000" stroke="none" font-family="Arial" font-size="13px" font-style="normal" font-weight="bold" text-decoration="none" x="529.332275390625" y="310.5">Consult Global Ranking</text><text fill="#000000" stroke="none" font-family="Arial" font-size="13px" font-style="normal" font-weight="bold" text-decoration="none" x="580.61181640625" y="323.5">(RF-21)</text></g></g><g transform="translate(-278,-70) scale(1,1)"><path fill="none" stroke="#000000" d="M 368 266 L 478 242" stroke-miterlimit="10"/></g><g transform="translate(-278,-70) scale(1,1)"><path fill="none" stroke="#000000" d="M 368 280 L 478 295" stroke-miterlimit="10"/></g><g transform="translate(-278,-70) scale(1,1)"><path fill="#C0C0C0" stroke="none" d="M 486 142.5 C 486 125.1030288 541.5166848 111 610 111 C 678.4833152 111 734 125.1030288 734 142.5 C 734 159.8969712 678.4833152 174 610 174 C 541.5166848 174 486 159.8969712 486 142.5 Z" opacity="0.2"/></g><g transform="translate(-278,-70) scale(1,1)"><path fill="#d8f2ff" stroke="none" d="M 479 135.5 C 479 118.1030288 534.5166848 104 603 104 C 671.4833152 104 727 118.1030288 727 135.5 C 727 152.8969712 671.4833152 167 603 167 C 534.5166848 167 479 152.8969712 479 135.5 Z"/></g><g transform="translate(-278,-70) scale(1,1)"><path fill="none" stroke="#000000" d="M 479 135.5 C 479 118.1030288 534.5166848 104 603 104 C 671.4833152 104 727 118.1030288 727 135.5 C 727 152.8969712 671.4833152 167 603 167 C 534.5166848 167 479 152.8969712 479 135.5 Z" stroke-miterlimit="10"/></g><g transform="translate(-278,-70) scale(1,1)"><g><path fill="none" stroke="none"/><text fill="#000000" stroke="none" font-family="Arial" font-size="13px" font-style="normal" font-weight="bold" text-decoration="none" x="538.71728515625" y="134.5">Log out from system</text><text fill="#000000" stroke="none" font-family="Arial" font-size="13px" font-style="normal" font-weight="bold" text-decoration="none" x="584.226806640625" y="147.5">(RF-5)</text></g></g><g transform="translate(-278,-70) scale(1,1)"><path fill="none" stroke="#000000" d="M 327 223 Q 328 144 478 139" stroke-miterlimit="10"/></g><g transform="translate(-278,-70) scale(1,1)"><path fill="#C0C0C0" stroke="none" d="M 486 398.5 C 486 381.1030288 541.5166848 367 610 367 C 678.4833152 367 734 381.1030288 734 398.5 C 734 415.8969712 678.4833152 430 610 430 C 541.5166848 430 486 415.8969712 486 398.5 Z" opacity="0.2"/></g><g transform="translate(-278,-70) scale(1,1)"><path fill="#d8f2ff" stroke="none" d="M 479 391.5 C 479 374.1030288 534.5166848 360 603 360 C 671.4833152 360 727 374.1030288 727 391.5 C 727 408.8969712 671.4833152 423 603 423 C 534.5166848 423 479 408.8969712 479 391.5 Z"/></g><g transform="translate(-278,-70) scale(1,1)"><path fill="none" stroke="#000000" d="M 479 391.5 C 479 374.1030288 534.5166848 360 603 360 C 671.4833152 360 727 374.1030288 727 391.5 C 727 408.8969712 671.4833152 423 603 423 C 534.5166848 423 479 408.8969712 479 391.5 Z" stroke-miterlimit="10"/></g><g transform="translate(-278,-70) scale(1,1)"><g><path fill="none" stroke="none"/><text fill="#000000" stroke="none" font-family="Arial" font-size="13px" font-style="normal" font-weight="bold" text-decoration="none" x="524.2890625" y="390.5">Consult own Combat Log</text><text fill="#000000" stroke="none" font-family="Arial" font-size="13px" font-style="normal" font-weight="bold" text-decoration="none" x="580.61181640625" y="403.5">(RF-20)</text></g></g><g transform="translate(-278,-70) scale(1,1)"><path fill="none" stroke="#000000" d="M 331 328 Q 336 392 478 391" stroke-miterlimit="10"/></g></g></svg>